<?xml version="1.0" encoding="utf-8"?><svg xmlns="http://www.w3.org/2000/svg" width="100%" height="70" fill="currentColor" preserveAspectRatio="xMidYMid meet"><path fill="url(#icon-b53ef0bea36351dc__icon-72ce81b7015ad7c7__a)" d="M51 6.5H13A6.5 6.5 0 0 0 6.5 13v38a6.5 6.5 0 0 0 6.5 6.5h38a6.5 6.5 0 0 0 6.5-6.5V13A6.5 6.5 0 0 0 51 6.5Z" /><path fill="url(#icon-bfbfb5db636f2025__icon-5652b125905e74ee__b)" fill-opacity=".2" d="M51 6.5H13A6.5 6.5 0 0 0 6.5 13v38a6.5 6.5 0 0 0 6.5 6.5h38a6.5 6.5 0 0 0 6.5-6.5V13A6.5 6.5 0 0 0 51 6.5Z" /><path stroke="currentColor" d="M51 6.5H13A6.5 6.5 0 0 0 6.5 13v38a6.5 6.5 0 0 0 6.5 6.5h38a6.5 6.5 0 0 0 6.5-6.5V13A6.5 6.5 0 0 0 51 6.5Z" /><path fill="url(#icon-78b554ca91837a7d__icon-1d1a4961c5185f24__c)" d="M26.75 27.93A4.001 4.001 0 0 0 26 20a4 4 0 0 0-.75 7.93v8.14A4.001 4.001 0 0 0 26 44a4 4 0 0 0 .75-7.93v-3.274H34a4.75 4.75 0 0 0 4.75-4.75v-.116a4.001 4.001 0 1 0-1.5 0v.116a3.25 3.25 0 0 1-3.25 3.25h-7.25V27.93Z" /><defs><linearGradient id="icon-b53ef0bea36351dc__icon-72ce81b7015ad7c7__a" x1="20.444" x2="27.022" y1="6" y2="58.622" gradientUnits="userSpaceOnUse"><stop stop-color="#FFFFFF" /><stop offset="1" stop-color="#D7EEFF" /></linearGradient><linearGradient id="icon-78b554ca91837a7d__icon-1d1a4961c5185f24__c" x1="22" x2="45.607" y1="20" y2="39.672" gradientUnits="userSpaceOnUse"><stop stop-color="#0091FC" /><stop offset="1" stop-color="#0070C4" /></linearGradient><radialGradient id="icon-bfbfb5db636f2025__icon-5652b125905e74ee__b" cx="0" cy="0" r="1" gradientTransform="rotate(56.31 -6.951 30.895) scale(49.4762 42.8159)" gradientUnits="userSpaceOnUse"><stop offset=".177" stop-color="#FFFFFF" /><stop offset="1" stop-color="#71C2FF" /></radialGradient></defs></svg>