<?xml version="1.0" encoding="utf-8"?><svg xmlns="http://www.w3.org/2000/svg" width="100%" height="70" fill="currentColor" preserveAspectRatio="xMidYMid meet"><path d="M8 5.499a2.5 2.5 0 0 1 2.5-2.5h11a2.5 2.5 0 0 1 2.5 2.5v4a2.5 2.5 0 0 1-2.5 2.5h-1.734l4.8 8H26.5a2.5 2.5 0 0 1 2.5 2.5v4a2.5 2.5 0 0 1-2.5 2.5h-5a2.5 2.5 0 0 1-2.5-2.5v-4a2.5 2.5 0 0 1 2.5-2.5h.734l-4.8-8h-2.868l-4.8 8h.734a2.5 2.5 0 0 1 2.5 2.5v4a2.5 2.5 0 0 1-2.5 2.5h-5a2.5 2.5 0 0 1-2.5-2.5v-4a2.5 2.5 0 0 1 2.5-2.5h1.934l4.8-8H10.5a2.5 2.5 0 0 1-2.5-2.5v-4Z" /></svg>