<?xml version="1.0" encoding="utf-8"?><svg xmlns="http://www.w3.org/2000/svg" width="100%" height="70" fill="currentColor" preserveAspectRatio="xMidYMid meet"><path fill="#004C84" d="M10.477 10.75H5.75a.75.75 0 0 1 0-1.5h7.106a5.502 5.502 0 0 0-2.38 1.5ZM9.022 15H7.75a.75.75 0 0 1 0-1.5h1.34a5.531 5.531 0 0 0-.068 1.5ZM17 5.75a.75.75 0 0 0-.75-.75H3.75a.75.75 0 0 0 0 1.5h12.5a.75.75 0 0 0 .75-.75Z" /><path fill="#0064AE" d="M14.5 19a4.5 4.5 0 1 0 0-9 4.5 4.5 0 0 0 0 9Zm2.354-5.646-3 3a.5.5 0 0 1-.708 0l-1-1a.5.5 0 0 1 .708-.708l.646.647 2.646-2.647a.5.5 0 0 1 .708.708Z" /></svg>