<?xml version="1.0" encoding="utf-8"?><svg xmlns="http://www.w3.org/2000/svg" width="100%" height="70" fill="currentColor" preserveAspectRatio="xMidYMid meet"><path fill="#73C3FF" d="m15 8-1.268-1.268A2.5 2.5 0 0 0 11.964 6H3.5A1.5 1.5 0 0 0 2 7.5v17A1.5 1.5 0 0 0 3.5 26h25a1.5 1.5 0 0 0 1.5-1.5v-15A1.5 1.5 0 0 0 28.5 8H15Z" /><path fill="#ABDBFF" d="m15 8-1.268 1.268a2.5 2.5 0 0 1-1.768.732H2v14.5A1.5 1.5 0 0 0 3.5 26h25a1.5 1.5 0 0 0 1.5-1.5v-15A1.5 1.5 0 0 0 28.5 8H15Z" /><path fill="url(#icon-056c209cbf47d699__icon-30fd26ec69028a53__a)" d="m15 8-1.268 1.268a2.5 2.5 0 0 1-1.768.732H2v14.5A1.5 1.5 0 0 0 3.5 26h25a1.5 1.5 0 0 0 1.5-1.5v-15A1.5 1.5 0 0 0 28.5 8H15Z" /><path fill="#007EDC" d="M3 25.5c-.286 0-.55-.084-.777-.223.263.432.734.723 1.277.723h25c.543 0 1.014-.291 1.277-.723A1.488 1.488 0 0 1 29 25.5H3Z" /><path fill="#FFFFFF" d="M14.129 9.621 15.75 8H15l-1.268 1.268a2.5 2.5 0 0 1-1.768.732H2v.5h10.007a3 3 0 0 0 2.122-.879Z" opacity=".4" /><defs><linearGradient id="icon-056c209cbf47d699__icon-30fd26ec69028a53__a" x1="2" x2="2" y1="8" y2="26" gradientUnits="userSpaceOnUse"><stop stop-color="#FFFFFF" stop-opacity=".01" /><stop offset=".999" stop-color="#ABDBFF" stop-opacity=".3" /></linearGradient></defs></svg>