<?xml version="1.0" encoding="utf-8"?><svg xmlns="http://www.w3.org/2000/svg" width="100%" height="70" fill="currentColor" preserveAspectRatio="xMidYMid meet"><path fill="#73C3FF" d="M10 5 8.586 3.586A2 2 0 0 0 7.172 3H2a1 1 0 0 0-1 1v12a1 1 0 0 0 1 1h16a1 1 0 0 0 1-1V6a1 1 0 0 0-1-1h-8Z" /><path fill="#ABDBFF" d="M10 5 8.586 6.414A2 2 0 0 1 7.172 7H1v9a1 1 0 0 0 1 1h16a1 1 0 0 0 1-1V6a1 1 0 0 0-1-1h-8Z" /><path fill="url(#icon-f5217c9d6cc0ae20__icon-ddcfdf2e3e034bd2__a)" d="M10 5 8.586 6.414A2 2 0 0 1 7.172 7H1v9a1 1 0 0 0 1 1h16a1 1 0 0 0 1-1V6a1 1 0 0 0-1-1h-8Z" /><path fill="#007EDC" d="M2 16.5c-.373 0-.71-.142-.973-.367.06.492.477.863.973.867h16c.505 0 .905-.38.973-.867-.262.226-.6.367-.973.367H2Z" /><path fill="#FFFFFF" d="M8.836 6.914 10.75 5H10L8.586 6.414A2 2 0 0 1 7.172 7H1v.5h6.422a2 2 0 0 0 1.414-.586Z" opacity=".4" /><defs><linearGradient id="icon-f5217c9d6cc0ae20__icon-ddcfdf2e3e034bd2__a" x1="1" x2="1" y1="5" y2="17" gradientUnits="userSpaceOnUse"><stop stop-color="#FFFFFF" stop-opacity=".01" /><stop offset=".999" stop-color="#ABDBFF" stop-opacity=".3" /></linearGradient></defs></svg>