<?xml version="1.0" encoding="utf-8"?><svg xmlns="http://www.w3.org/2000/svg" width="100%" height="70" fill="currentColor" preserveAspectRatio="xMidYMid meet"><path d="M2 12.162a1 1 0 0 0 .498.865l2 1.16a1 1 0 0 0 1.004 0l2-1.16A1 1 0 0 0 8 12.162V9.838a1 1 0 0 0-.498-.865l-2-1.16a1 1 0 0 0-1.004 0l-2 1.16A1 1 0 0 0 2 9.838v2.324ZM9.498 13.027A1 1 0 0 1 9 12.162V9.838a1 1 0 0 1 .498-.865l2-1.16a1 1 0 0 1 1.004 0l2 1.16a1 1 0 0 1 .498.865v2.324a1 1 0 0 1-.498.865l-2 1.16a1 1 0 0 1-1.004 0l-2-1.16ZM5.5 6.162a1 1 0 0 0 .498.865l2 1.16a1 1 0 0 0 1.004 0l2-1.16a1 1 0 0 0 .498-.865V3.838a1 1 0 0 0-.498-.865l-2-1.16a1 1 0 0 0-1.004 0l-2 1.16a1 1 0 0 0-.498.865v2.324Z" /></svg>