<?xml version="1.0" encoding="utf-8"?><svg xmlns="http://www.w3.org/2000/svg" width="100%" height="70" fill="currentColor" preserveAspectRatio="xMidYMid meet"><path d="M7 14a1 1 0 1 0 0-2 1 1 0 0 0 0 2Z" /><path d="M2 5a3 3 0 0 1 3-3h10a3 3 0 0 1 3 3v10a3 3 0 0 1-3 3H5a3 3 0 0 1-3-3V5Zm3.023.5a.5.5 0 0 0 .5.5h3a.5.5 0 0 0 0-1h-3a.5.5 0 0 0-.5.5Zm0 3a.5.5 0 0 0 .5.5h3a.5.5 0 0 0 0-1h-3a.5.5 0 0 0-.5.5Zm6-3a.5.5 0 0 0 .5.5h3a.5.5 0 1 0 0-1h-3a.5.5 0 0 0-.5.5Zm0 3a.5.5 0 0 0 .5.5h3a.5.5 0 1 0 0-1h-3a.5.5 0 0 0-.5.5Zm0 3a.5.5 0 0 0 .5.5h3a.5.5 0 1 0 0-1h-3a.5.5 0 0 0-.5.5ZM7 15a2 2 0 1 0 0-4 2 2 0 0 0 0 4Z" /></svg>