<?xml version="1.0" encoding="utf-8"?><svg xmlns="http://www.w3.org/2000/svg" width="100%" height="70" fill="currentColor" preserveAspectRatio="xMidYMid meet"><path d="M4.5 4.75A1.75 1.75 0 0 0 2.75 6.5v1c0 .966.784 1.75 1.75 1.75h11a1.75 1.75 0 0 0 1.75-1.75v-1a1.75 1.75 0 0 0-1.75-1.75h-11Zm3.5 3v-1.5h7.5a.25.25 0 0 1 .25.25v1a.25.25 0 0 1-.25.25H8ZM4.5 10.75a1.75 1.75 0 0 0-1.75 1.75v1c0 .966.784 1.75 1.75 1.75h11a1.75 1.75 0 0 0 1.75-1.75v-1a1.75 1.75 0 0 0-1.75-1.75h-11Zm7.5 3v-1.5h3.5a.25.25 0 0 1 .25.25v1a.25.25 0 0 1-.25.25H12Z" /></svg>