<?xml version="1.0" encoding="utf-8"?><svg xmlns="http://www.w3.org/2000/svg" width="100%" height="70" fill="currentColor" preserveAspectRatio="xMidYMid meet"><path fill="url(#icon-7d5b7f8ce33ced79__icon-a4b25a5e5b32406e__a)" fill-rule="evenodd" d="M4.5 3a.5.5 0 0 0-.5.5V14h15.5l-3.9-5.2a.5.5 0 0 1 0-.6L19.5 3h-15ZM4 15v6.5a.5.5 0 0 1-1 0v-18A1.5 1.5 0 0 1 4.5 2h16a.5.5 0 0 1 .4.8l-4.275 5.7 4.275 5.7a.5.5 0 0 1-.4.8H4Z" clip-rule="evenodd" /><defs><linearGradient id="icon-7d5b7f8ce33ced79__icon-a4b25a5e5b32406e__a" x1="3" x2="22.89" y1="2" y2="19.901" gradientUnits="userSpaceOnUse"><stop stop-color="#0080E0" /><stop offset="1" stop-color="#005696" /></linearGradient></defs></svg>