<?xml version="1.0" encoding="utf-8"?><svg xmlns="http://www.w3.org/2000/svg" width="100%" height="70" fill="currentColor" preserveAspectRatio="xMidYMid meet"><path fill="url(#icon-c67ee05a84f64c9b__icon-19b575380b7102f2__a)" fill-rule="evenodd" d="M7.5 5a.5.5 0 0 0-.5.5V40h49.5L43.6 22.8a.5.5 0 0 1 0-.6L56.5 5h-49ZM7 41v18.5a.5.5 0 0 1-1 0v-54A1.5 1.5 0 0 1 7.5 4h50a.5.5 0 0 1 .4.8L44.625 22.5 57.9 40.2a.5.5 0 0 1-.4.8H7Z" clip-rule="evenodd" /><defs><linearGradient id="icon-c67ee05a84f64c9b__icon-19b575380b7102f2__a" x1="6" x2="61.847" y1="4" y2="55.858" gradientUnits="userSpaceOnUse"><stop stop-color="#0080E0" /><stop offset="1" stop-color="#005696" /></linearGradient></defs></svg>