<?xml version="1.0" encoding="utf-8"?><svg xmlns="http://www.w3.org/2000/svg" width="100%" height="70" fill="currentColor" preserveAspectRatio="xMidYMid meet"><path fill="url(#icon-7a822c7727023341__icon-38fd810bae575bb3__a)" d="M5 10a5 5 0 0 1 5-5h28a5 5 0 0 1 5 5v28a5 5 0 0 1-5 5H10a5 5 0 0 1-5-5V10Z" /><path fill="url(#icon-b9f29c153c99f35d__icon-5a8f4258b02ed6e9__b)" fill-opacity=".2" d="M5 10a5 5 0 0 1 5-5h28a5 5 0 0 1 5 5v28a5 5 0 0 1-5 5H10a5 5 0 0 1-5-5V10Z" /><path fill="url(#icon-d221701fa26bfb1d__icon-d3865f614ef3ccaa__c)" fill-rule="evenodd" d="M38 6H10a4 4 0 0 0-4 4v28a4 4 0 0 0 4 4h28a4 4 0 0 0 4-4V10a4 4 0 0 0-4-4ZM10 5a5 5 0 0 0-5 5v28a5 5 0 0 0 5 5h28a5 5 0 0 0 5-5V10a5 5 0 0 0-5-5H10Z" clip-rule="evenodd" /><path fill="url(#icon-853903d05dabb737__icon-ec9fe962a0a4b5d0__d)" d="M23.037 15.048a1.75 1.75 0 0 1 2.2.224l3.712 3.712A6.999 6.999 0 0 1 24.75 30.89v2.359a.75.75 0 1 1-1.5 0V30.89a6.999 6.999 0 0 1-4.199-11.908l3.712-3.71c.085-.086.177-.161.274-.225ZM24 23a.75.75 0 0 0-.75.75v5.63a5.524 5.524 0 0 0 1.5 0v-5.63A.75.75 0 0 0 24 23Z" /><defs><linearGradient id="icon-7a822c7727023341__icon-38fd810bae575bb3__a" x1="15.556" x2="20.362" y1="5" y2="43.455" gradientUnits="userSpaceOnUse"><stop stop-color="#FFFFFF" /><stop offset="1" stop-color="#D7EEFF" /></linearGradient><linearGradient id="icon-d221701fa26bfb1d__icon-d3865f614ef3ccaa__c" x1="17.271" x2="22.387" y1="5" y2="43.373" gradientUnits="userSpaceOnUse"><stop stop-color="#77C5FF" /><stop offset="1" stop-color="#119AFF" /></linearGradient><linearGradient id="icon-853903d05dabb737__icon-ec9fe962a0a4b5d0__d" x1="17.001" x2="35.307" y1="14.76" y2="28.078" gradientUnits="userSpaceOnUse"><stop stop-color="#0076CE" /><stop offset="1" stop-color="#005DA2" /></linearGradient><radialGradient id="icon-b9f29c153c99f35d__icon-5a8f4258b02ed6e9__b" cx="0" cy="0" r="1" gradientTransform="rotate(56.31 -5.347 23.46) scale(36.1557 31.2886)" gradientUnits="userSpaceOnUse"><stop offset=".177" stop-color="#FFFFFF" /><stop offset="1" stop-color="#71C2FF" /></radialGradient></defs></svg>