<?xml version="1.0" encoding="utf-8"?><svg id="a190de4f-47a5-4f48-859f-421d4393bb54" data-name="azure-fluent-icons" xmlns="http://www.w3.org/2000/svg" xmlns:xlink="http://www.w3.org/1999/xlink" width="100%" height="70" viewBox="0 0 18 18" preserveAspectRatio="xMidYMid meet"><defs><linearGradient id="b4943fc0-ee69-42fa-ba77-41b9c6c6b321" x1="9" y1="16.007" x2="9" y2="5.707" gradientUnits="userSpaceOnUse"><stop offset="0" stop-color="#2FA6FF" /><stop offset="0.175" stop-color="#3FADFF" /><stop offset="0.41" stop-color="#4BB2FF" /><stop offset="0.775" stop-color="#4FB4FF" /></linearGradient></defs><title>Lighthouse-GS-networking-371</title><g><path d="M.285,5.707H17.715a0,0,0,0,1,0,0v10.08a.22.22,0,0,1-.22.22H.505a.22.22,0,0,1-.22-.22V5.707A0,0,0,0,1,.285,5.707Z" fill="url(#b4943fc0-ee69-42fa-ba77-41b9c6c6b321)" /><path d="M.509,1.993H17.491a.22.22,0,0,1,.22.22V5.707a0,0,0,0,1,0,0H.289a0,0,0,0,1,0,0V2.213A.22.22,0,0,1,.509,1.993Z" fill="#006CBC" /><g><circle cx="12.917" cy="10.218" r="1.416" fill="#006CBC" /><circle cx="9.058" cy="10.218" r="1.416" fill="#006CBC" /><circle cx="5.083" cy="10.218" r="1.416" fill="#006CBC" /></g><rect x="2.63" y="3.102" width="12.739" height="1.496" rx="0.11" fill="#E5F3FF" /></g></svg>