<?xml version="1.0" encoding="utf-8"?><svg xmlns="http://www.w3.org/2000/svg" width="100%" height="70" viewBox="0 0 18 18" preserveAspectRatio="xMidYMid meet"><defs><linearGradient id="f6a16bda-952e-4567-8fdb-a66e2f210003" x1="9" y1="3.12" x2="9" y2="14.88" gradientUnits="userSpaceOnUse"><stop offset="0" stop-color="#4FB4FF" /><stop offset="0.228" stop-color="#47B0FF" /><stop offset="0.463" stop-color="#33A8FF" /><stop offset="0.703" stop-color="#139AFF" /><stop offset="0.944" stop-color="#0084E6" /><stop offset="1" stop-color="#007CD8" /></linearGradient></defs><title>MsPortalFx.base.images-74</title><g id="ae6f4164-ac1c-4313-a292-cc2c642036fa"><g><rect x="0.5" y="3.12" width="17" height="11.76" rx="0.572" fill="url(#f6a16bda-952e-4567-8fdb-a66e2f210003)" /><path d="M17.463,9.912,16.235,8.8a1.374,1.374,0,0,0-1.785,0L7.828,14.88h9.1a.572.572,0,0,0,.572-.572v-4.4Z" fill="#59B8FF" /><path d="M15.69,14.88l-5.208-4.731a1.06,1.06,0,0,0-1.376,0L3.9,14.88Z" fill="#8FCFFF" /><path d="M9,7.852a1.555,1.555,0,0,0-1.351-1.5A1.962,1.962,0,0,0,5.628,4.479,2.027,2.027,0,0,0,3.7,5.792,1.847,1.847,0,0,0,2.072,7.578,1.885,1.885,0,0,0,4.023,9.39c.058,0,.115,0,.172-.008H7.354a.326.326,0,0,0,.083-.012A1.575,1.575,0,0,0,9,7.852Z" fill="#FFFFFF" /></g></g></svg>