<?xml version="1.0" encoding="utf-8"?><svg xmlns="http://www.w3.org/2000/svg" width="100%" height="70" viewBox="0 0 18 18" preserveAspectRatio="xMidYMid meet"><defs><linearGradient id="a1711304-680d-4c8b-88a3-f1ba4b9a6455" x1="9" y1="16.431" x2="9" y2="4.559" gradientUnits="userSpaceOnUse"><stop offset="0" stop-color="#006CBC" /><stop offset="0.156" stop-color="#0078D2" /><stop offset="0.528" stop-color="#0193FF" /><stop offset="0.822" stop-color="#1F9FFF" /><stop offset="1" stop-color="#29A4FF" /></linearGradient></defs><title>MsPortalFx.base.images-78</title><g id="bb1c4aae-a407-4f6f-98e2-81891d0404e1"><g><path d="M13.135,4.659h-.85V2.422a.1.1,0,0,0-.026,0H5.845a.093.093,0,0,0-.026,0V4.659h-.85V2.379a.846.846,0,0,1,.876-.81h6.414a.846.846,0,0,1,.876.81Z" fill="#47B0FF" /><rect x="0.5" y="4.559" width="17" height="11.872" rx="0.567" fill="url(#a1711304-680d-4c8b-88a3-f1ba4b9a6455)" /><rect x="0.5" y="7.594" width="17" height="1.311" fill="#ABDBFF" /><path d="M6.617,8.905H11.5a0,0,0,0,1,0,0v1.531a.281.281,0,0,1-.281.281H6.9a.281.281,0,0,1-.281-.281V8.905A0,0,0,0,1,6.617,8.905Z" fill="#00518E" /><polygon points="0.5 10.894 0.5 13.889 5.144 15.378 6.015 12.662 0.5 10.894" fill="#5FBBFF" /><path d="M17.5,10.745a2.718,2.718,0,1,0,0,4.837Z" fill="#29A4FF" /></g></g></svg>