<?xml version="1.0" encoding="utf-8"?><svg xmlns="http://www.w3.org/2000/svg" width="100%" height="70" viewBox="0 0 18 18" preserveAspectRatio="xMidYMid meet"><defs><linearGradient id="f1d663a9-64c8-43fb-a40f-a24a6c8f7510" x1="9" y1="11.576" x2="9" gradientUnits="userSpaceOnUse"><stop offset="0" stop-color="#006CBC" /><stop offset="0.156" stop-color="#0078D2" /><stop offset="0.528" stop-color="#0193FF" /><stop offset="0.822" stop-color="#1F9FFF" /><stop offset="1" stop-color="#29A4FF" /></linearGradient></defs><title>MsPortalFx.base.images-43</title><g id="e1d66782-0311-4f04-9e41-92ce22baac72"><g><path d="M17.166,7.95a3.669,3.669,0,0,0-3.185-3.527A4.624,4.624,0,0,0,9.218,0,4.745,4.745,0,0,0,4.683,3.092,4.379,4.379,0,0,0,.834,7.305a4.444,4.444,0,0,0,4.6,4.271c.136,0,.271-.007.405-.018h7.447a.749.749,0,0,0,.2-.029A3.713,3.713,0,0,0,17.166,7.95Z" fill="url(#f1d663a9-64c8-43fb-a40f-a24a6c8f7510)" /><rect x="1.929" y="12.68" width="14.908" height="1.078" rx="0.539" fill="#007CD8" /><rect x="1.929" y="14.793" width="11.143" height="1.078" rx="0.466" fill="#2FA6FF" /><rect x="1.929" y="16.891" width="8.935" height="1.109" rx="0.423" fill="#77C5FF" /></g></g></svg>