<?xml version="1.0" encoding="utf-8"?><svg xmlns="http://www.w3.org/2000/svg" width="100%" height="70" viewBox="0 0 18 18" preserveAspectRatio="xMidYMid meet"><defs><linearGradient id="a9c4371a-d707-43d8-b213-37d041a253ab" x1="-40" y1="74.181" x2="-40" y2="59.819" gradientTransform="translate(49 -58)" gradientUnits="userSpaceOnUse"><stop offset="0" stop-color="#007CD8" /><stop offset="0.619" stop-color="#47B0FF" /><stop offset="1" stop-color="#4FB4FF" /></linearGradient></defs><g id="a71de4a0-d0de-4b34-8152-efb31beca04f"><g id="bcd05f9a-32fa-46a6-8f5a-731299f106a8"><g><path d="M6.216.5H2.845A1.026,1.026,0,0,0,1.819,1.526V4.9H3.871V2.552H6.216Z" fill="#2FA6FF" /><path d="M15.155.5h-3.37V2.552h2.344V4.9h2.052V1.526A1.026,1.026,0,0,0,15.155.5Z" fill="#2FA6FF" /><path d="M14.129,13.1v2.345H11.785V17.5h3.37a1.026,1.026,0,0,0,1.026-1.026V13.1Z" fill="#2FA6FF" /><path d="M3.871,15.448V13.1H1.819v3.371A1.026,1.026,0,0,0,2.845,17.5H6.216V15.448Z" fill="#2FA6FF" /><path d="M3.724,16.181H14.276a.588.588,0,0,0,.586-.586V2.4a.588.588,0,0,0-.586-.586H3.724a.588.588,0,0,0-.586.586V15.6A.588.588,0,0,0,3.724,16.181Z" fill="url(#a9c4371a-d707-43d8-b213-37d041a253ab)" /><path d="M4.6,15.009H13.4a.294.294,0,0,0,.293-.293V3.285a.294.294,0,0,0-.293-.294H4.6a.294.294,0,0,0-.293.294V14.716A.294.294,0,0,0,4.6,15.009Z" fill="#FFFFFF" /><path d="M6.655,13.25h4.69a.294.294,0,0,0,.293-.293V11.638a.294.294,0,0,0-.293-.293H6.655a.294.294,0,0,0-.293.293v1.319A.294.294,0,0,0,6.655,13.25Z" fill="#008AF0" /><path d="M6.655,9.953h4.69a.294.294,0,0,0,.293-.293V8.341a.294.294,0,0,0-.293-.294H6.655a.294.294,0,0,0-.293.294V9.66A.294.294,0,0,0,6.655,9.953Z" fill="#2FA6FF" /><path d="M6.655,6.655h4.69a.294.294,0,0,0,.293-.293V5.043a.294.294,0,0,0-.293-.293H6.655a.294.294,0,0,0-.293.293V6.362A.294.294,0,0,0,6.655,6.655Z" fill="#59B8FF" /></g></g></g>​
</svg>