<?xml version="1.0" encoding="utf-8"?><svg id="b6380083-4e28-4b51-a66e-17ad7c6f2341" xmlns="http://www.w3.org/2000/svg" width="100%" height="70" viewBox="0 0 18 18" preserveAspectRatio="xMidYMid meet"><defs><linearGradient id="fcc6e24e-9816-47ca-a4eb-f4db516e3ca2" x1="11.78" y1="0.5" x2="11.78" y2="11.83" gradientUnits="userSpaceOnUse"><stop offset="0" stop-color="#4FB4FF" /><stop offset="0.23" stop-color="#47B0FF" /><stop offset="0.46" stop-color="#33A8FF" /><stop offset="0.7" stop-color="#139AFF" /><stop offset="0.94" stop-color="#0084E6" /><stop offset="1" stop-color="#007CD8" /></linearGradient></defs><title>Icon-integration-220</title><path d="M6.22,11.83H.67V6.73a.57.57,0,0,1,.57-.56h5Zm5.56,0H6.22V17.5h5a.57.57,0,0,0,.57-.57Z" fill="#00518E" /><path d="M11.78,11.83H6.22V6.17h5.56Zm-5.56,0H.67v5.1a.57.57,0,0,0,.57.57h5Z" fill="#006CBC" /><path d="M11.78,6.17H6.22V1.07A.57.57,0,0,1,6.79.5h5Zm5.55,0H11.78v5.66h5.09a.46.46,0,0,0,.46-.45Z" fill="#006CBC" /><path d="M17.33,6.17H11.78V.5h5.09a.46.46,0,0,1,.46.45Zm-5.55,0H6.22v5.1a.57.57,0,0,0,.57.56h5Z" fill="url(#fcc6e24e-9816-47ca-a4eb-f4db516e3ca2)" /></svg>