<?xml version="1.0" encoding="utf-8"?><svg id="uuid-6b8380c3-0ee5-4c44-92a2-f185c82db6ba" xmlns="http://www.w3.org/2000/svg" width="100%" height="70" viewBox="0 0 18 18" preserveAspectRatio="xMidYMid meet"><defs><linearGradient id="uuid-05876c72-8f26-40da-996e-a488172ec072" x1="-603.563" y1="-218.378" x2="-606.6" y2="-206.22" gradientTransform="translate(617.126 -205.758) scale(1 -1)" gradientUnits="userSpaceOnUse"><stop offset="0" stop-color="#004E88" /><stop offset=".09" stop-color="#0060A8" /><stop offset=".18" stop-color="#0072C6" /><stop offset=".27" stop-color="#007DDA" /><stop offset=".34" stop-color="#0085E8" /><stop offset=".4" stop-color="#0089EE" /><stop offset=".5" stop-color="#0086EA" /><stop offset=".61" stop-color="#0080E0" /><stop offset=".72" stop-color="#0076CE" /><stop offset=".83" stop-color="#0067B4" /><stop offset=".95" stop-color="#005696" /><stop offset="1" stop-color="#004E88" /></linearGradient><linearGradient id="uuid-c4a2f627-d730-447e-9152-62009c64c361" x1="-602.412" y1="-206.025" x2="-602.412" y2="-223.175" gradientTransform="translate(617.126 -205.758) scale(1 -1)" gradientUnits="userSpaceOnUse"><stop offset="0" stop-color="#45B0FF" /><stop offset=".08" stop-color="#2BA5FF" /><stop offset=".19" stop-color="#0F99FF" /><stop offset=".3" stop-color="#008DF6" /><stop offset=".41" stop-color="#0083E4" /><stop offset=".54" stop-color="#007AD4" /><stop offset=".67" stop-color="#0074CA" /><stop offset=".81" stop-color="#0070C4" /><stop offset="1" stop-color="#006FC2" /></linearGradient><linearGradient id="uuid-5a4cf215-4932-4f12-8af1-1b6833df259c" x1="-603.438" y1="-206.414" x2="-614.807" y2="-224.644" gradientTransform="translate(617.126 -205.758) scale(1 -1)" gradientUnits="userSpaceOnUse"><stop offset="0" stop-color="#45B0FF" /><stop offset=".05" stop-color="#2DA5FF" /><stop offset=".11" stop-color="#159BFF" /><stop offset=".18" stop-color="#0092FE" /><stop offset=".25" stop-color="#0087EC" /><stop offset=".33" stop-color="#007EDC" /><stop offset=".42" stop-color="#0077D0" /><stop offset=".54" stop-color="#0073C8" /><stop offset=".68" stop-color="#0070C4" /><stop offset="1" stop-color="#006FC2" /></linearGradient></defs><path d="m12.061.012c.534,0,1.008.401,1.178.984s1.166,4.19,1.166,4.19v7.166h-3.607l.073-12.352h1.19v.012Z" fill="url(#uuid-05876c72-8f26-40da-996e-a488172ec072)" fill-rule="evenodd" stroke-width="0" /><path d="m17.356,5.611c0-.255-.206-.449-.449-.449h-2.126c-1.494,0-2.709,1.215-2.709,2.709v4.494h2.575c1.494,0,2.709-1.215,2.709-2.709v-4.045Z" fill="url(#uuid-c4a2f627-d730-447e-9152-62009c64c361)" stroke-width="0" /><path d="m12.061.012c-.413,0-.741.328-.741.741l-.073,13.64c0,1.992-1.615,3.607-3.607,3.607H1.093c-.316,0-.522-.304-.425-.595L5.915,2.429C6.425.984,7.785.012,9.316.012h2.757-.012Z" fill="url(#uuid-5a4cf215-4932-4f12-8af1-1b6833df259c)" fill-rule="evenodd" stroke-width="0" /></svg>